<svg width="52" height="52" viewBox="0 0 52 52" fill="none" xmlns="http://www.w3.org/2000/svg">
<g clip-path="url(#clip0_61_130)">
<path d="M26.011 0.306641C11.8183 0.306641 0.315659 11.8093 0.315659 26.0019C0.315659 40.1946 11.8183 51.6968 26.011 51.6968C40.2036 51.6968 51.7063 40.1946 51.7063 26.0019C51.7063 11.8093 40.2037 0.306641 26.011 0.306641ZM26.011 49.6411C12.9766 49.6411 2.37128 39.0363 2.37128 26.0019C2.37128 12.9675 12.9766 2.36227 26.011 2.36227C39.0453 2.36227 49.6507 12.9675 49.6507 26.0019C49.6507 39.0363 39.0453 49.6411 26.011 49.6411Z" fill="#37404D"/>
<path d="M27.0388 10.5847H24.9832V24.9741H10.662V27.0297H24.9832V41.3508H27.0388V27.0297H41.4282V24.9741H27.0388V10.5847Z" fill="#37404D"/>
</g>
<defs>
<clipPath id="clip0_61_130">
<rect width="52" height="52" fill="white"/>
</clipPath>
</defs>
</svg>
